HIERARCHY
ROOT Hips
{
	OFFSET 0.00000 0.00000 0.00000
	CHANNELS 6 Xposition Yposition Zposition Zrotation Yrotation Xrotation 
	JOINT LHipJoint
	{
		OFFSET 0 0 0
		CHANNELS 3 Zrotation Yrotation Xrotation
		JOINT LeftHip
		{
			OFFSET 1.57338 -1.94743 0.52196
			CHANNELS 3 Zrotation Yrotation Xrotation
			JOINT LeftKnee
			{
				OFFSET 2.60333 -7.15259 0.00000
				CHANNELS 3 Zrotation Yrotation Xrotation
				JOINT LeftAnkle
				{
					OFFSET 2.77855 -7.63400 0.00000
					CHANNELS 3 Zrotation Yrotation Xrotation
					JOINT LeftToe
					{
						OFFSET 0.19847 -0.54529 2.28466
						CHANNELS 3 Zrotation Yrotation Xrotation
						End Site
						{
							OFFSET 0.00000 -0.00000 1.17993
						}
					}
				}
			}
		}
	}
	JOINT RHipJoint
	{
		OFFSET 0 0 0
		CHANNELS 3 Zrotation Yrotation Xrotation
		JOINT RightHip
		{
			OFFSET -1.61527 -1.94743 0.52196
			CHANNELS 3 Zrotation Yrotation Xrotation
			JOINT RightKnee
			{
				OFFSET -2.53829 -6.97390 0.00000
				CHANNELS 3 Zrotation Yrotation Xrotation
				JOINT RightAnkle
				{
					OFFSET -2.80762 -7.71387 0.00000
					CHANNELS 3 Zrotation Yrotation Xrotation
					JOINT RightToe
					{
						OFFSET -0.30536 -0.83898 2.28801
						CHANNELS 3 Zrotation Yrotation Xrotation
						End Site
						{
							OFFSET -0.00000 -0.00000 1.21323
						}
					}
				}
			}
		}
	}
	JOINT lowerback
	{
		OFFSET 0 0 0
		CHANNELS 3 Zrotation Yrotation Xrotation
		JOINT Chest
		{
			OFFSET -0.04381 1.99497 -0.19778
			CHANNELS 3 Zrotation Yrotation Xrotation
			JOINT Chest2
			{
				OFFSET -0.01959 2.01295 -0.04372
				CHANNELS 3 Zrotation Yrotation Xrotation
				JOINT lowerneck
				{
					OFFSET 0 0 0
					CHANNELS 3 Zrotation Yrotation Xrotation
					JOINT Neck
					{
						OFFSET -0.05459 1.76913 0.09708
						CHANNELS 3 Zrotation Yrotation Xrotation
						JOINT Head
						{
							OFFSET 0.09461 1.77368 -0.11172
							CHANNELS 3 Zrotation Yrotation Xrotation
							End Site
							{
								OFFSET 0.03812 1.78157 -0.04834
							}
						}
					}
				}
				JOINT LeftCollar
				{
					OFFSET 0 0 0
					CHANNELS 3 Zrotation Yrotation Xrotation
					JOINT LeftShoulder
					{
						OFFSET 3.50922 1.24034 -0.28866
CHANNELS 3 Zrotation Xrotation Yrotation
						JOINT LeftElbow
						{
OFFSET 0 -5.401880 0.000000
CHANNELS 3 Zrotation Xrotation Yrotation
							JOINT LeftWrist
							{
OFFSET 0 -3.685590 0.000000
CHANNELS 3 Zrotation Xrotation Yrotation
								JOINT lhand
								{
									OFFSET 0 0 0
CHANNELS 3 Zrotation Xrotation Yrotation
									JOINT LFingers
									{
OFFSET 0 -0.617530 0.000000
CHANNELS 3 Zrotation Xrotation Yrotation
										End Site
										{
OFFSET 0 -0.497870 0.000000
										}
									}
								}
								JOINT LThumb
								{
OFFSET 0 0.000000 0.000000
CHANNELS 3 Zrotation Xrotation Yrotation
									End Site
									{
OFFSET 0 -0.505470 0.505470
									}
								}
							}
						}
					}
				}
				JOINT RightCollar
				{
					OFFSET 0 0 0
					CHANNELS 3 Zrotation Yrotation Xrotation
					JOINT RightShoulder
					{
						OFFSET -2.95373 1.39649 -0.27346
CHANNELS 3 Zrotation Xrotation Yrotation
						JOINT RightElbow
						{
OFFSET 0 -6.106700 -0.000000
CHANNELS 3 Zrotation Xrotation Yrotation
							JOINT RightWrist
							{
OFFSET 0 -3.630520 0.000000
CHANNELS 3 Zrotation Xrotation Yrotation
								JOINT rhand
								{
									OFFSET 0 0 0
CHANNELS 3 Zrotation Xrotation Yrotation
									JOINT RFingers
									{
OFFSET 0 -0.583850 0.000000
CHANNELS 3 Zrotation Xrotation Yrotation
										End Site
										{
OFFSET 0 -0.470710 0.000000
										}
									}
								}
								JOINT RThumb
								{
OFFSET 0 0.000000 0.000000
CHANNELS 3 Zrotation Xrotation Yrotation
									End Site
									{
OFFSET 0 -0.477900 0.477900
									}
								}
							}
						}
					}
				}
			}
		}
	}
}
MOTION
Frames: 10
Frame Time: 0.008333333333333333
3.610100 18.805600 2.651800 17.353100 -64.020400 -8.803600 0.000000 0.000000 0.000000 -21.834200 -2.092300 -18.198900 4.163300 12.374600 37.070400 0.277200 7.389200 -15.281900 0.457400 -4.338600 -12.031400 0.000000 0.000000 0.000000 13.689400 27.210200 -9.370000 -2.863000 -10.469900 30.512100 -1.218500 -1.632400 -21.502800 -0.047900 -1.411800 3.882700 1.208800 -2.579000 8.938300 4.409300 -3.342100 3.235300 4.226300 -1.735000 -1.448100 -9.163200 -11.998400 -5.185400 5.696200 -17.939500 26.036300 1.418600 -8.751000 10.548200 0.000000 -0.000000 0.000000 2.813700 -7.854200 -62.989400 126.316800 -54.377100 90.857400 33.890700 -47.579900 -18.913100 0.000000 0.000000 0.000000 -7.125000 0.000000 0.000000 5.891800 52.314200 -1.063800 0.000000 -0.000000 0.000000 -17.694500 -19.389400 14.583700 -17.609600 -27.654400 -4.366500 -66.146800 7.185500 -11.202700 0.000000 0.000000 0.000000 7.125000 0.000000 -0.000000 -24.528500 5.664300 -24.398600
3.440805 18.788586 2.798409 16.249817 -66.316068 -7.213730 0.000000 0.000000 0.000000 -20.497491 -7.612787 -19.047740 3.096328 10.848756 31.772144 0.387188 7.683456 -16.999607 0.318794 -3.629326 -10.036056 0.000000 0.000000 0.000000 14.478917 27.825764 -9.375409 -2.795235 -10.355939 30.137198 -1.168249 -0.951257 -20.791700 -0.002080 -0.295142 0.811069 1.959538 -2.649791 9.740938 5.542617 -3.387762 3.694277 5.032896 -1.789137 -1.377072 -9.722608 -11.721997 -5.308575 5.606183 -17.251584 24.927562 1.584019 -8.492373 10.149686 0.000000 0.000000 0.000000 1.482033 -8.073183 -63.337351 124.498924 -54.986706 89.373998 33.405295 -47.173260 -18.468127 0.000000 0.000000 0.000000 -7.125000 0.000000 0.000000 5.418762 51.705568 -0.897675 0.000000 0.000000 0.000000 -18.005982 -21.976599 11.110274 -16.479066 -26.165878 -3.854850 -69.630212 -2.238896 -13.339712 0.000000 0.000000 0.000000 7.125000 0.000000 0.000000 -25.606971 -1.565619 -29.371861
3.261447 18.818580 2.973635 15.949357 -68.161668 -5.917871 0.000000 0.000000 0.000000 -19.349933 -15.671745 -19.305437 2.089707 9.049250 25.950381 0.245967 9.464724 -17.082844 0.314641 -3.603591 -9.964223 0.000000 0.000000 0.000000 14.419280 28.254928 -9.183852 -2.553468 -9.934363 28.764534 -1.207746 0.287653 -20.692272 -0.049237 -1.431673 3.937418 2.746223 -1.989286 10.322697 5.601997 -2.450479 4.102923 4.568973 -1.327510 -1.365938 -7.817339 -12.008162 -5.186798 5.861671 -17.947777 24.603020 1.326521 -8.625968 9.901477 0.000000 0.000000 0.000000 1.833073 -9.558952 -66.503439 123.712289 -55.236701 88.728770 30.837123 -46.298515 -17.724715 0.000000 0.000000 0.000000 -7.125000 0.000000 0.000000 2.850433 50.375692 -0.378105 0.000000 0.000000 0.000000 -17.962114 -23.584095 5.976477 -15.101293 -24.286575 -3.267768 -68.945165 16.344914 -6.186117 0.000000 0.000000 0.000000 7.125000 0.000000 0.000000 -28.187908 14.509044 -22.360796
3.059819 18.820660 3.170341 15.834991 -70.117192 -4.685066 0.000000 0.000000 0.000000 -18.583948 -18.374310 -21.850252 1.315803 7.264524 20.501841 0.286335 3.720327 -12.184657 1.060246 -6.543059 -18.369877 0.000000 0.000000 0.000000 14.093778 28.571642 -9.499208 -2.435621 -9.719920 28.074527 -1.301573 1.454956 -21.142420 -0.052952 -1.483960 4.081415 2.793391 -1.438575 11.002970 6.049487 -1.708409 4.326531 4.955622 -0.975095 -1.532685 -7.684674 -12.021973 -5.341498 6.201333 -18.177036 25.237268 1.362568 -8.663556 10.201396 0.000000 0.000000 0.000000 1.671377 -11.831096 -69.228153 123.765254 -55.220110 88.772258 30.363919 -43.837829 -17.326083 0.000000 0.000000 0.000000 -7.125000 0.000000 0.000000 2.422370 49.842202 -0.289322 0.000000 0.000000 0.000000 -19.003640 -24.842384 7.734158 -13.324190 -21.760149 -2.572329 -69.461854 47.791074 5.564127 0.000000 0.000000 0.000000 7.125000 0.000000 0.000000 -37.826755 41.594409 -3.804728
2.812893 18.796984 3.394669 15.570710 -71.799624 -3.650882 0.000000 0.000000 0.000000 -18.337839 -21.101042 -23.001986 0.766922 5.591851 15.604758 0.133336 -2.726315 -6.494834 1.378957 -7.430036 -20.996272 0.000000 0.000000 0.000000 13.981862 28.594278 -9.351777 -2.353852 -9.567242 27.586383 -1.383537 2.900064 -21.477366 -0.060740 -1.589457 4.372343 2.853725 -0.693034 11.603199 6.299879 -0.695238 4.421867 5.079576 -0.479973 -1.822679 -7.589870 -12.161849 -5.227641 6.105831 -18.429452 25.591754 1.283384 -8.770606 10.311171 0.000000 0.000000 0.000000 2.418608 -14.831987 -72.729947 122.962135 -55.467457 88.111670 30.839600 -40.267952 -16.570376 0.000000 0.000000 0.000000 -7.125000 0.000000 0.000000 2.985867 49.070503 -0.299980 0.000000 0.000000 0.000000 -18.538084 -25.833201 8.094923 -11.407305 -18.909759 -1.905888 -69.610358 64.857759 11.582983 0.000000 0.000000 0.000000 7.125000 0.000000 0.000000 -47.260345 53.195023 11.572299
2.463162 18.731916 3.665899 13.251046 -73.871096 -1.687788 0.000000 0.000000 0.000000 -19.434603 -19.671197 -23.860981 0.782036 5.644315 15.756282 -0.040217 -3.595645 1.142750 0.170635 -2.634288 -7.263675 0.000000 0.000000 0.000000 15.204104 28.220224 -7.769668 -2.318075 -9.499279 27.370053 -1.455041 4.915919 -21.730223 -0.097213 -2.010430 5.534426 3.217720 0.261278 11.882213 6.737072 0.572337 4.760458 5.174446 0.131994 -1.701475 -7.450359 -12.048936 -5.083652 5.603962 -18.141889 25.551372 1.150211 -8.681168 10.178202 0.000000 0.000000 0.000000 3.658496 -17.431700 -76.534052 122.685547 -55.550729 87.883703 31.445278 -36.643713 -16.606513 0.000000 0.000000 0.000000 -7.125000 0.000000 0.000000 3.585988 49.214712 -0.373034 0.000000 0.000000 0.000000 -16.751588 -27.100086 7.529346 -9.367539 -15.744058 -1.298298 -67.997175 71.529587 14.596993 0.000000 0.000000 0.000000 7.125000 0.000000 0.000000 -49.443248 57.031419 17.453615
2.101333 18.666622 3.932461 10.802021 -73.668949 0.152947 0.000000 0.000000 0.000000 -20.732028 -18.682040 -24.888341 1.323069 7.284406 20.560903 -0.065558 -4.508123 1.604825 0.023702 -0.990179 -2.721799 0.000000 0.000000 0.000000 16.535535 26.980935 -6.302791 -2.459482 -9.763133 28.213604 -1.627169 4.898960 -23.032362 -0.154703 -2.531882 6.978265 3.323955 0.625737 12.497936 7.343833 1.091763 4.843237 5.700020 0.372786 -1.990833 -7.593603 -12.213021 -4.713797 5.919503 -18.366226 24.952525 1.287626 -8.784117 9.957195 0.000000 0.000000 0.000000 4.426776 -18.502051 -78.938929 126.362456 -54.360124 90.894246 34.803506 -30.302391 -20.103670 0.000000 0.000000 0.000000 -7.125000 0.000000 0.000000 6.779526 53.879660 -1.489272 0.000000 0.000000 0.000000 -14.008062 -28.077631 9.043013 -8.108163 -13.728018 -0.977669 -67.052490 69.371261 14.774189 0.000000 0.000000 0.000000 7.125000 0.000000 0.000000 -47.771495 56.851475 16.405875
1.773593 18.614247 4.097281 13.217376 -72.681253 -1.959865 0.000000 0.000000 0.000000 -22.570652 -16.560777 -25.773089 1.576549 7.921852 22.477182 -0.244080 -8.728550 2.840901 0.014845 0.781727 2.148437 0.000000 0.000000 0.000000 16.871517 22.862829 -8.821696 -3.251129 -11.090680 32.586611 -1.975488 1.812936 -26.093393 -0.240084 -3.153533 8.706444 2.410290 1.338609 12.781820 7.363073 1.912156 5.268043 6.125692 0.769141 -1.792694 -7.936703 -13.287596 -3.725172 7.681021 -19.961349 22.664357 1.825415 -9.442042 9.325254 0.000000 0.000000 0.000000 5.950666 -17.432681 -75.960225 132.779215 -51.810146 96.027841 37.599563 -25.017323 -24.208762 0.000000 0.000000 0.000000 -7.125000 0.000000 0.000000 9.712901 59.289998 -3.410203 0.000000 0.000000 0.000000 -10.622441 -28.314422 13.228727 -9.273562 -15.595202 -1.272782 -68.908451 68.379311 15.927397 0.000000 0.000000 0.000000 7.125000 0.000000 0.000000 -53.974229 59.273969 22.789543
1.429026 18.656613 4.278875 16.634146 -74.643209 -5.335949 0.000000 0.000000 0.000000 -24.018512 -14.692447 -25.090002 1.637362 8.066006 22.914742 -0.236386 -8.724850 1.526531 0.006810 0.532694 1.463888 0.000000 0.000000 0.000000 17.675592 20.248598 -9.826776 -3.767729 -11.844608 35.184606 -2.032141 -1.898872 -27.684550 -0.171295 -2.664641 7.346433 0.844401 2.676322 12.167269 7.641597 3.439089 5.701439 7.126252 1.499724 -1.249742 -8.364802 -13.772969 -2.915117 7.060668 -20.699856 23.740169 1.621700 -9.867760 9.604184 0.000000 0.000000 0.000000 6.958603 -13.392611 -69.745245 138.469480 -48.950221 100.413974 37.006122 -25.467627 -24.991149 0.000000 0.000000 0.000000 -7.125000 0.000000 0.000000 8.899384 60.031513 -3.279649 0.000000 0.000000 0.000000 -9.007964 -28.585534 25.083930 -9.918597 -16.612093 -1.451641 -66.690675 54.364654 12.051037 0.000000 0.000000 0.000000 7.125000 0.000000 0.000000 -42.912861 52.514712 9.336575
1.105206 18.688967 4.438843 26.812096 -77.564834 -14.794750 0.000000 0.000000 0.000000 -26.167955 -12.084284 -24.200755 1.422293 7.541706 21.330438 -0.194011 -8.143094 0.427277 0.008582 0.594270 1.633053 0.000000 0.000000 0.000000 16.276259 19.179594 -11.043417 -4.186505 -12.404552 37.178525 -2.018761 -1.781796 -27.548721 -0.201850 -2.892697 7.980134 -1.068046 4.251725 11.584419 7.021814 5.338962 5.732804 7.303915 2.451107 -1.240484 -8.511501 -14.299338 -2.708926 7.146516 -21.563051 24.199280 1.552509 -10.257238 9.839363 0.000000 0.000000 0.000000 7.994247 -7.565926 -65.153425 143.711211 -45.709327 104.270671 33.138866 -25.547526 -22.219201 0.000000 0.000000 0.000000 -7.125000 0.000000 0.000000 4.683142 55.924527 -1.261462 0.000000 0.000000 0.000000 -6.911198 -28.485154 32.983264 -11.497701 -19.046269 -1.935882 -62.985355 36.368992 4.067640 0.000000 0.000000 0.000000 7.125000 0.000000 0.000000 -30.320964 37.001501 -6.684258
